<?xml version="1.0" encoding="UTF-8" standalone="no"?>
<!-- Generator: Adobe Illustrator 18.0.0, SVG Export Plug-In . SVG Version: 6.00 Build 0)  -->

<svg
   xmlns:dc="http://purl.org/dc/elements/1.1/"
   xmlns:cc="http://creativecommons.org/ns#"
   xmlns:rdf="http://www.w3.org/1999/02/22-rdf-syntax-ns#"
   xmlns:svg="http://www.w3.org/2000/svg"
   xmlns="http://www.w3.org/2000/svg"
   xmlns:sodipodi="http://sodipodi.sourceforge.net/DTD/sodipodi-0.dtd"
   xmlns:inkscape="http://www.inkscape.org/namespaces/inkscape"
   version="1.1"
   id="Layer_1"
   x="0px"
   y="0px"
   viewBox="0 0 103 111.9"
   enable-background="new 0 0 320.1 99.9"
   xml:space="preserve"
   sodipodi:docname="airbnb.svg"
   inkscape:version="0.92.4 5da689c313, 2019-01-14"
   width="103"
   height="111.9"><metadata
   id="metadata9"><rdf:RDF><cc:Work
       rdf:about=""><dc:format>image/svg+xml</dc:format><dc:type
         rdf:resource="http://purl.org/dc/dcmitype/StillImage" /><dc:title></dc:title></cc:Work></rdf:RDF></metadata><defs
   id="defs7" /><sodipodi:namedview
   pagecolor="#ffffff"
   bordercolor="#666666"
   borderopacity="1"
   objecttolerance="10"
   gridtolerance="10"
   guidetolerance="10"
   inkscape:pageopacity="0"
   inkscape:pageshadow="2"
   inkscape:window-width="1920"
   inkscape:window-height="1174"
   id="namedview5"
   showgrid="false"
   inkscape:zoom="4.2138686"
   inkscape:cx="132.8386"
   inkscape:cy="2.0715158"
   inkscape:window-x="1920"
   inkscape:window-y="0"
   inkscape:window-maximized="1"
   inkscape:current-layer="Layer_1" />
<path
   d="m 96.720856,78.253722 c -0.5,-1.2 -1,-2.5 -1.5,-3.6 -0.8,-1.8 -1.6,-3.5 -2.3,-5.1 l -0.1,-0.1 c -6.9,-15 -14.3,-30.2 -22.1,-45.2 l -0.3,-0.6 c -0.8,-1.5 -1.6,-3.1 -2.4,-4.7 -1,-1.799999 -2,-3.699998 -3.6,-5.499998 -3.2,-3.9999945 -7.8,-6.1999925 -12.7,-6.1999925 -5,0 -9.5,2.199998 -12.8,5.9999935 -1.5,1.799999 -2.6,3.699998 -3.6,5.499997 -0.8,1.6 -1.6,3.2 -2.4,4.7 l -0.3,0.6 c -7.7,15 -15.2,30.2 -22.1,45.2 l -0.1,0.2 c -0.7000003,1.6 -1.5000003,3.3 -2.3000003,5.1 -0.5,1.1 -1,2.3 -1.5,3.6 -1.3,3.7 -1.7,7.2 -1.2,10.8 1.1,7.50001 6.1000003,13.800038 13.0000003,16.600038 2.6,1.10001 5.3,1.60001 8.1,1.60001 0.8,0 1.8,-0.1 2.6,-0.2 3.3,-0.4 6.7,-1.50001 10,-3.40001 4.1,-2.30002 8,-5.600028 12.4,-10.400038 4.4,4.80001 8.4,8.100018 12.4,10.400038 3.3,1.9 6.7,3.00001 10,3.40001 0.8,0.1 1.8,0.2 2.6,0.2 2.8,0 5.6,-0.5 8.1,-1.60001 7,-2.8 11.9,-9.200028 13,-16.600038 0.8,-3.5 0.4,-7 -0.9,-10.7 z m -45.1,5.2 c -5.4,-6.8 -8.9,-13.2 -10.1,-18.6 -0.5,-2.3 -0.6,-4.3 -0.3,-6.1 0.2,-1.6 0.8,-3 1.6,-4.2 1.9,-2.7 5.1,-4.4 8.8,-4.4 3.7,0 7,1.6 8.8,4.4 0.8,1.2 1.4,2.6 1.6,4.2 0.3,1.8 0.2,3.9 -0.3,6.1 -1.2,5.3 -4.7,11.7 -10.1,18.6 z m 39.9,4.7 c -0.7,5.2 -4.2,9.70001 -9.1,11.700014 -2.4,1.000004 -5,1.300004 -7.6,1.000004 -2.5,-0.3 -5,-1.100004 -7.6,-2.600006 -3.6,-2.000012 -7.2,-5.100012 -11.4,-9.700012 6.6,-8.1 10.6,-15.5 12.1,-22.1 0.7,-3.1 0.8,-5.9 0.5,-8.5 -0.4,-2.5 -1.3,-4.8 -2.7,-6.8 -3.1,-4.5 -8.3,-7.1 -14.1,-7.1 -5.8,0 -11,2.7 -14.1,7.1 -1.4,2 -2.3,4.3 -2.7,6.8 -0.4,2.6 -0.3,5.5 0.5,8.5 1.5,6.6 5.6,14.1 12.1,22.2 -4.1,4.6 -7.8,7.70001 -11.4,9.700012 -2.6,1.500002 -5.1,2.300006 -7.6,2.600006 -2.7,0.3 -5.3,-0.1 -7.6,-1.000004 -4.9,-2.000004 -8.4,-6.500014 -9.1,-11.700014 -0.3,-2.5 -0.1,-5 0.9,-7.8 0.3,-1 0.8,-2 1.3,-3.2 0.7,-1.6 1.5,-3.3 2.3,-5 l 0.1,-0.2 c 6.9,-14.9 14.3,-30.1 22,-44.9 l 0.3,-0.6 c 0.8,-1.5 1.6,-3.1 2.4,-4.6 0.8,-1.6 1.7,-3.1 2.8,-4.4 2.1,-2.399998 4.9,-3.699998 8,-3.699998 3.1,0 5.9,1.3 8,3.699998 1.1,1.3 2,2.8 2.8,4.4 0.8,1.5 1.6,3.1 2.4,4.6 l 0.3,0.6 c 7.6,14.9 15,30.1 21.9,45 v 0.1 c 0.8,1.6 1.5,3.4 2.3,5 0.5,1.2 1,2.2 1.3,3.2 0.8,2.6 1.1,5.1 0.7,7.7 z"
   id="path2"
   inkscape:connector-curvature="0"
   style="fill:#000000;stroke:#000000;stroke-width:9.19999981;stroke-miterlimit:4;stroke-dasharray:none;stroke-opacity:1"
   sodipodi:nodetypes="ccccccccsccccccccccscccccscccccccsccccccccccccsccccccccccccccccsccccccccc" />
</svg>