<?xml version="1.0" encoding="UTF-8" standalone="no"?>
<svg
   xmlns:dc="http://purl.org/dc/elements/1.1/"
   xmlns:cc="http://creativecommons.org/ns#"
   xmlns:rdf="http://www.w3.org/1999/02/22-rdf-syntax-ns#"
   xmlns:svg="http://www.w3.org/2000/svg"
   xmlns="http://www.w3.org/2000/svg"
   xmlns:sodipodi="http://sodipodi.sourceforge.net/DTD/sodipodi-0.dtd"
   xmlns:inkscape="http://www.inkscape.org/namespaces/inkscape"
   height="34.5"
   width="37"
   viewBox="0 0 37 34.5"
   version="1.1"
   id="svg42"
   sodipodi:docname="vrbo_wide.svg"
   inkscape:version="0.92.4 5da689c313, 2019-01-14">
  <metadata
     id="metadata48">
    <rdf:RDF>
      <cc:Work
         rdf:about="">
        <dc:format>image/svg+xml</dc:format>
        <dc:type
           rdf:resource="http://purl.org/dc/dcmitype/StillImage" />
        <dc:title></dc:title>
      </cc:Work>
    </rdf:RDF>
  </metadata>
  <defs
     id="defs46" />
  <sodipodi:namedview
     pagecolor="#ffffff"
     bordercolor="#666666"
     borderopacity="1"
     objecttolerance="10"
     gridtolerance="10"
     guidetolerance="10"
     inkscape:pageopacity="0"
     inkscape:pageshadow="2"
     inkscape:window-width="1920"
     inkscape:window-height="1174"
     id="namedview44"
     showgrid="false"
     inkscape:zoom="11.072"
     inkscape:cx="38.425321"
     inkscape:cy="37.391832"
     inkscape:window-x="1920"
     inkscape:window-y="0"
     inkscape:window-maximized="1"
     inkscape:current-layer="svg42" />
  <path
     d="m 16.84,28.827051 0.89,-1.88 -4,-19.43 C 12.98,3.7470509 13.3,1.7870509 14.55,0.6670509 v -0.06 h -2.16 c -0.66,1.41 -0.86,2.82 -0.1,6.5500001 z m -1.84,3.75 0.89,-1.86 -5,-23.61 C 10.01,3.4370509 10.21,1.7570509 10.57,0.6070509 H 8.66 A 21.46,21.46 0 0 0 9.42,6.487051 Z M 6.91,0.6070509 H 4.66 v 0.06 c 1,1.22 1.3,2.71 2.1,6.0000001 l 6,27.83 h 1.35 l -6,-27.92 A 51.08,51.08 0 0 1 6.91,0.6070509 Z m -4.5,0 H 0 v 0.06 c 2.2,0.87 3.28,2.54 4.15,6.4500001 l 5.93,27.37 h 1.35 l -5.97,-27.54 C 4.43,2.1670509 3.35,1.2870509 2.41,0.6070509 Z m 30.66,0 c -2.84,1.66 -4.53,4.7300001 -8.07,12.3400001 l 0.09,0.05 c 4.09,-7.66 6.42,-10.7100001 11.7,-12.3000001 v -0.09 z m -8.27,12.1900001 0.09,0.06 c 3.36,-7.91 4.24,-10.1200001 5.61,-12.1900001 v -0.06 h -2.72 v 0.08 c 0.28,3.17 -0.78,6.0900001 -2.98,12.1100001 z"
     id="path38"
     inkscape:connector-curvature="0"
     style="fill:#000000" />
  <path
     d="m 24.62,12.23 0.09,0.06 C 26.84,5.2 27.53,2.07 25.65,0.16 H 23 v 0.06 c 3,1.06 3.62,4.09 1.62,12.01 z"
     id="path40"
     inkscape:connector-curvature="0"
     style="fill:#000000"
     sodipodi:nodetypes="cccccc" />
</svg>
